<?xml version="1.0" standalone="no"?>
<!DOCTYPE svg PUBLIC "-//W3C//DTD SVG 20010904//EN"
 "http://www.w3.org/TR/2001/REC-SVG-20010904/DTD/svg10.dtd">
<svg version="1.0" xmlns="http://www.w3.org/2000/svg"
 width="1800.000000pt" height="700.000000pt" viewBox="0 0 1800.000000 700.000000"
 preserveAspectRatio="xMidYMid meet">

<g transform="translate(0.000000,700.000000) scale(0.100000,-0.100000)"
fill="#fff" stroke="none">
<path d="M11332 6519 c-92 -46 -39 215 -599 -2960 -365 -2069 -503 -2871 -498
-2897 4 -21 21 -50 40 -69 l33 -33 412 0 c283 0 418 3 433 11 38 20 96 82 107
113 13 41 1010 5697 1010 5730 0 44 -27 94 -59 110 -26 14 -87 16 -433 16
-392 0 -404 -1 -446 -21z"/>
<path d="M13005 6523 c-45 -23 -71 -50 -89 -91 -25 -58 -1018 -5708 -1013
-5762 4 -35 13 -51 41 -77 l36 -33 405 0 c318 0 413 3 438 14 40 16 92 74 105
118 6 18 237 1313 512 2878 552 3129 515 2889 449 2944 l-31 26 -411 0 c-356
-1 -416 -3 -442 -17z"/>
<path d="M8405 5040 c-483 -41 -864 -174 -1160 -405 -300 -235 -526 -578 -674
-1022 -73 -216 -110 -378 -185 -798 -75 -422 -86 -518 -86 -726 0 -495 131
-865 407 -1150 158 -163 350 -281 572 -353 264 -86 447 -103 918 -87 459 15
676 36 1078 102 269 44 299 58 330 150 17 52 115 584 115 627 0 45 -33 80 -83
87 -23 4 -139 -3 -257 -14 -724 -69 -1324 -87 -1525 -47 -287 58 -463 220
-521 481 -22 101 -23 285 0 414 8 52 19 98 24 103 4 4 595 9 1312 10 1248 3
1306 4 1335 21 37 22 72 71 85 118 14 48 77 411 94 549 68 527 -19 1000 -250
1352 -69 105 -270 300 -377 367 -161 99 -340 164 -557 202 -135 24 -425 33
-595 19z m330 -915 c113 -31 185 -73 265 -154 167 -168 217 -403 162 -766 l-7
-50 -816 -3 c-735 -2 -818 -1 -830 14 -39 48 86 414 199 581 146 216 337 338
606 389 94 18 339 11 421 -11z"/>
<path d="M15790 5039 c-1048 -79 -1658 -624 -1925 -1722 -49 -198 -162 -830
-176 -983 -16 -175 -7 -475 20 -628 128 -726 662 -1170 1456 -1212 146 -7 692
11 905 30 333 31 775 101 837 133 64 33 77 69 138 397 30 164 55 310 55 325 0
44 -34 79 -83 86 -23 4 -116 -1 -207 -9 -587 -57 -1237 -88 -1442 -68 -238 23
-376 78 -493 196 -127 128 -176 261 -179 481 -1 120 15 268 35 323 l9 22 1288
0 c934 0 1298 3 1323 11 49 17 96 65 114 118 16 48 85 445 106 616 18 145 15
465 -5 600 -58 374 -184 650 -398 871 -315 325 -763 460 -1378 413z m324 -914
c157 -44 294 -148 359 -273 60 -116 79 -191 84 -344 5 -121 -8 -303 -24 -345
-4 -11 -147 -13 -819 -13 -811 0 -813 0 -827 21 -13 18 -13 29 -1 82 29 127
76 259 128 364 148 295 361 459 671 517 104 20 344 15 429 -9z"/>
<path d="M695 4976 c-42 -18 -103 -89 -110 -128 -9 -49 73 -3748 86 -3858 43
-375 204 -473 749 -457 153 5 202 10 282 31 227 58 395 194 531 431 25 44 281
620 567 1280 626 1441 570 1315 586 1315 17 0 11 64 119 -1275 52 -643 97
-1192 101 -1220 11 -96 37 -191 70 -264 103 -224 275 -301 674 -301 336 0 499
44 637 173 79 74 131 149 190 274 25 52 360 946 745 1986 741 2004 716 1930
671 1979 -43 48 -47 48 -488 48 -344 0 -421 -3 -444 -14 -49 -26 -88 -81 -114
-163 -14 -43 -265 -811 -557 -1708 -293 -896 -539 -1643 -548 -1658 -21 -35
-43 -31 -53 8 -5 17 -51 638 -104 1380 -52 743 -100 1382 -106 1420 -14 89
-44 159 -81 190 -61 51 -105 57 -473 62 -361 6 -535 -4 -620 -33 -60 -21 -147
-104 -187 -179 -14 -27 -285 -663 -602 -1413 -317 -749 -587 -1384 -601 -1411
-29 -59 -38 -66 -56 -45 -11 14 -8 280 20 1613 41 1966 39 1848 22 1889 -26
62 -28 62 -473 62 -309 -1 -410 -4 -433 -14z"/>
</g>
</svg>
