<?xml version="1.0" encoding="utf-8"?>
<!-- Generator: Adobe Illustrator 16.0.0, SVG Export Plug-In . SVG Version: 6.00 Build 0)  -->
<!DOCTYPE svg PUBLIC "-//W3C//DTD SVG 1.1//EN" "http://www.w3.org/Graphics/SVG/1.1/DTD/svg11.dtd">
<svg version="1.1" id="flag-icon-css-kr" xmlns="http://www.w3.org/2000/svg" xmlns:xlink="http://www.w3.org/1999/xlink" x="0px"
	 y="0px" width="595.281px" height="841.891px" viewBox="0 0 595.281 841.891" enable-background="new 0 0 595.281 841.891"
	 xml:space="preserve">
<g>
	<defs>
		<rect id="SVGID_1_" x="-0.012" y="197.738" width="595.31" height="446.461"/>
	</defs>
	<clipPath id="SVGID_2_">
		<use xlink:href="#SVGID_1_"  overflow="visible"/>
	</clipPath>
	<g transform="translate(89.8 .4) scale(.9375)" clip-path="url(#SVGID_2_)">
		<path fill="#FFFFFF" d="M561.242,686.719h-679.178V210.494h679.178V686.719z"/>
		<path fill="#FFFFFF" d="M227.607,448.978c0,57.791-46.849,104.64-104.64,104.64S18.327,506.769,18.327,448.978
			s46.848-104.64,104.639-104.64S227.607,391.188,227.607,448.978z"/>
		<path fill="#C70000" d="M358.846,455.118c0,75.34-60.458,136.542-135.148,136.542c-74.688,0-135.054-61.202-135.054-136.542
			c0-75.341,60.458-136.636,135.147-136.636C298.482,318.481,358.846,379.777,358.846,455.118z"/>
		<path d="M-52.641,328.435l77.759-89.944l18.509,15.905l-77.852,90.036L-52.641,328.435z M-27.156,350.478l77.759-89.944
			l18.509,15.813l-77.852,90.129L-27.156,350.478z"/>
		<path d="M-52.641,328.435l77.759-89.944l18.509,15.905l-77.852,90.036L-52.641,328.435z"/>
		<path d="M-52.641,328.435l77.759-89.944l18.509,15.905l-77.852,90.036L-52.641,328.435z M-1.112,373.08l77.758-90.129
			l18.509,15.998l-77.852,90.036L-1.112,373.08z"/>
		<path d="M-52.641,328.435l77.759-89.944l18.509,15.905l-77.852,90.036L-52.641,328.435z"/>
		<path d="M-52.641,328.435l77.759-89.944l18.509,15.905l-77.852,90.036L-52.641,328.435z M420.607,238.398l77.2,90.594
			l-18.602,15.813l-77.2-90.595L420.607,238.398z M368.798,282.579l77.2,90.594l-18.602,15.813l-77.2-90.595L368.798,282.579z"/>
		<path fill="#FFFFFF" d="M381.727,334.758l72.921-63.063l13.673,15.813l-78.129,70.131l-8.65-22.881H381.727z"/>
		<path d="M471.577,556.873l-74.781,89.106l-18.325-15.254l74.783-89.106L471.577,556.873z M394.936,260.255l77.2,90.595
			l-18.51,15.813l-77.106-90.688L394.936,260.255z M496.969,577.987l-74.875,89.106l-18.417-15.254l74.877-89.106L496.969,577.987z
			 M445.719,535.388l-74.781,89.105l-18.323-15.254l74.781-89.105L445.719,535.388z"/>
		<path fill="#3D5897" d="M90.598,431.027c4.279,34.415,10.51,72.735,63.434,76.643c19.811,1.208,58.412-4.651,71.62-58.784
			c17.485-51.901,69.758-66.783,105.383-38.694c20.369,13.208,25.95,34.135,27.252,49.948c-1.581,50.227-30.6,93.943-67.713,113.476
			c-42.785,25.392-101.942,25.95-153.75-12.557C113.479,539.201,80.832,498.74,90.598,431.027L90.598,431.027z"/>
		<path fill="#FFFFFF" d="M398.842,555.571l73.108,62.876l-13.581,15.813l-81.013-66.783l21.392-11.905H398.842z"/>
		<path d="M-8.46,543.107l77.2,90.501l-18.602,15.813l-77.201-90.502L-8.46,543.107z"/>
		<path fill="#FFFFFF" d="M-21.761,617.611l73.108-63.156l13.673,15.813l-78.131,70.225l-8.65-22.975V617.611z"/>
		<path d="M17.211,521.249l77.201,90.501l-18.603,15.813l-77.201-90.501L17.211,521.249z M-34.597,565.43l77.2,90.501
			l-18.603,15.813l-77.2-90.501L-34.597,565.43z"/>
	</g>
</g>
</svg>
