<?xml version="1.0" encoding="utf-8"?>
<!-- Generator: Adobe Illustrator 16.0.0, SVG Export Plug-In . SVG Version: 6.00 Build 0)  -->
<!DOCTYPE svg PUBLIC "-//W3C//DTD SVG 1.1//EN" "http://www.w3.org/Graphics/SVG/1.1/DTD/svg11.dtd">
<svg version="1.1" id="flag-icon-css-us" xmlns="http://www.w3.org/2000/svg" xmlns:xlink="http://www.w3.org/1999/xlink" x="0px"
	 y="0px" width="595.281px" height="313.307px" viewBox="0 264.292 595.281 313.307"
	 enable-background="new 0 264.292 595.281 313.307" xml:space="preserve">
<g>
	<g>
		<path fill="#BD3D44" d="M0,264.292h595.281v24.11H0V264.292z M0,312.512h595.281v24.109H0V312.512z M0,360.67h595.281v24.172H0
			V360.67z M0,408.889h595.281v24.111H0V408.889z M0,457.109h595.281v24.111H0V457.109z M0,505.27h595.281v24.108H0V505.27z
			 M0,553.487h595.281v24.111H0V553.487z"/>
		<path fill="#FFFFFF" d="M0,288.402h595.281v24.111H0V288.402z M0,336.622h595.281v24.048H0V336.622z M0,384.78h595.281v24.11H0
			V384.78z M0,433.001h595.281v24.108H0V433.001z M0,481.22h595.281v24.108H0V481.22z M0,529.379h595.281v24.108H0V529.379z"/>
	</g>
	<path fill="#192F5D" d="M0,264.292h238.1v168.709H0V264.292z"/>
	<path fill="#FFFFFF" d="M19.826,271.513l2.203,6.669h6.976l-5.63,4.1l2.142,6.731l-5.69-4.16l-5.63,4.1l2.142-6.671l-5.69-4.1
		h7.098L19.826,271.513z M59.54,271.513l2.142,6.669h7.037l-5.691,4.1l2.142,6.731l-5.63-4.16l-5.69,4.1l2.141-6.671l-5.629-4.1
		h6.976L59.54,271.513z M99.193,271.513l2.203,6.669h6.914l-5.629,4.1l2.142,6.731l-5.691-4.16l-5.629,4.1l2.142-6.671l-5.69-4.1
		h7.036L99.193,271.513z M138.907,271.513l2.142,6.669h7.037l-5.69,4.1l2.203,6.731l-5.691-4.16l-5.69,4.1l2.203-6.671l-5.691-4.1
		h6.976L138.907,271.513z M178.56,271.513l2.203,6.669h6.976l-5.63,4.1l2.142,6.731l-5.69-4.16l-5.629,4.1l2.141-6.671l-5.629-4.1
		h6.976L178.56,271.513z M218.274,271.513l2.141,6.669h7.038l-5.692,4.1l2.204,6.731l-5.69-4.16l-5.69,4.1l2.202-6.671l-5.691-4.1
		h7.037L218.274,271.513z M39.714,288.402l2.142,6.671h7.037l-5.692,4.1l2.081,6.669l-5.508-4.1l-5.69,4.1l2.02-6.669l-5.508-4.1
		h6.977L39.714,288.402z M79.367,288.402l2.202,6.671h6.977l-5.69,4.1l2.202,6.669l-5.69-4.1l-5.691,4.1l2.203-6.669l-5.691-4.1
		h7.037L79.367,288.402z M119.081,288.402l2.142,6.671h7.037l-5.691,4.1l2.142,6.669l-5.629-4.1l-5.69,4.1l2.141-6.669l-5.629-4.1
		h6.976L119.081,288.402z M158.733,288.402l2.204,6.671h6.976l-5.691,4.1l2.203,6.669l-5.691-4.1l-5.63,4.1l2.142-6.669l-5.691-4.1
		h7.099L158.733,288.402z M198.447,288.402l2.142,6.671h7.037l-5.69,4.1l2.141,6.669l-5.629-4.1l-5.69,4.1l2.141-6.669l-5.629-4.1
		h6.975L198.447,288.402z M19.826,305.229l2.203,6.793h6.976l-5.63,4.1l2.142,6.669l-5.69-4.16l-5.63,4.16l2.142-6.731l-5.69-4.099
		h7.098L19.826,305.229z M59.54,305.229l2.142,6.732h7.037l-5.691,4.099l2.142,6.671l-5.63-4.162l-5.69,4.162L55.99,316l-5.629-4.1
		h6.976L59.54,305.229z M99.193,305.229l2.203,6.732h6.914l-5.629,4.099l2.142,6.671l-5.691-4.162l-5.629,4.162L95.644,316
		l-5.69-4.1h7.036L99.193,305.229z M138.907,305.229l2.142,6.732h7.037l-5.69,4.099l2.203,6.671l-5.691-4.162l-5.69,4.162
		l2.203-6.731l-5.691-4.1h6.976L138.907,305.229z M178.56,305.229l2.203,6.732h6.976l-5.63,4.099l2.142,6.671l-5.69-4.162
		l-5.629,4.162l2.141-6.731l-5.629-4.1h6.976L178.56,305.229z M218.274,305.229l2.141,6.732h7.038l-5.692,4.099l2.204,6.671
		l-5.69-4.162l-5.69,4.162l2.202-6.731l-5.691-4.1h7.037L218.274,305.229z M39.714,322.119l2.142,6.67h7.037l-5.692,4.101
		l2.143,6.731l-5.63-4.162l-5.69,4.1l2.141-6.669l-5.629-4.101h6.976L39.714,322.119z M79.367,322.119l2.202,6.67h6.977l-5.69,4.101
		l2.202,6.731l-5.69-4.162l-5.691,4.1l2.203-6.669l-5.691-4.101h7.037L79.367,322.119z M119.081,322.119l2.142,6.67h7.037
		l-5.691,4.101l2.142,6.731l-5.629-4.162l-5.69,4.1l2.141-6.669l-5.629-4.101h6.976L119.081,322.119z M158.733,322.119l2.204,6.67
		h6.976l-5.63,4.101l2.142,6.731l-5.691-4.162l-5.63,4.1l2.142-6.669l-5.691-4.101h7.099L158.733,322.119z M198.447,322.119
		l2.142,6.67h7.037l-5.69,4.101l2.141,6.731l-5.629-4.162l-5.69,4.1l2.141-6.669l-5.629-4.101h6.975L198.447,322.119z
		 M19.826,339.008l2.203,6.67h6.976l-5.63,4.1l2.142,6.731l-5.69-4.162l-5.63,4.1l2.142-6.67l-5.69-4.1h7.098L19.826,339.008z
		 M59.54,339.008l2.142,6.67h7.037l-5.691,4.1l2.142,6.67l-5.63-4.1l-5.69,4.1l2.141-6.67l-5.629-4.1h6.976L59.54,339.008z
		 M99.193,339.008l2.203,6.67h6.914l-5.629,4.1l2.142,6.731l-5.691-4.162l-5.629,4.1l2.142-6.67l-5.69-4.1h7.036L99.193,339.008z
		 M138.907,339.008l2.142,6.67h7.037l-5.69,4.1l2.203,6.731l-5.691-4.162l-5.69,4.1l2.203-6.67l-5.691-4.1h6.976L138.907,339.008z
		 M178.56,339.008l2.203,6.67h6.976l-5.63,4.1l2.142,6.731l-5.69-4.162l-5.629,4.1l2.141-6.67l-5.629-4.1h6.976L178.56,339.008z
		 M218.274,339.008l2.141,6.67h7.038l-5.692,4.1l2.204,6.731l-5.69-4.162l-5.69,4.1l2.202-6.67l-5.691-4.1h7.037L218.274,339.008z
		 M39.714,355.898l2.142,6.669h7.037l-5.692,4.1l2.143,6.67l-5.63-4.161l-5.69,4.161l2.141-6.731l-5.629-4.1h6.976L39.714,355.898z
		 M79.367,355.898l2.202,6.669h6.977l-5.69,4.1l2.202,6.67l-5.69-4.161l-5.691,4.161l2.203-6.731l-5.691-4.1h7.037L79.367,355.898z
		 M119.081,355.898l2.142,6.669h7.037l-5.691,4.1l2.142,6.67l-5.629-4.161l-5.69,4.161l2.141-6.731l-5.629-4.1h6.976
		L119.081,355.898z M158.733,355.898l2.204,6.669h6.976l-5.63,4.1l2.142,6.67l-5.691-4.161l-5.63,4.161l2.142-6.731l-5.691-4.1
		h7.099L158.733,355.898z M198.447,355.898l2.142,6.669h7.037l-5.69,4.1l2.141,6.67l-5.629-4.161l-5.69,4.161l2.141-6.731
		l-5.629-4.1h6.975L198.447,355.898z M19.826,372.725l2.203,6.731h6.976l-5.63,4.1l2.142,6.609l-5.69-4.1l-5.63,4.1l2.142-6.67
		l-5.69-4.1h7.098L19.826,372.725z M59.54,372.725l2.142,6.731h7.037l-5.691,4.1l2.203,6.609l-5.691-4.1l-5.69,4.1l2.202-6.67
		l-5.69-4.1h6.976L59.54,372.725z M99.193,372.725l2.203,6.731h6.914l-5.629,4.1l2.142,6.609l-5.691-4.1l-5.629,4.1l2.142-6.67
		l-5.69-4.1h7.036L99.193,372.725z M138.907,372.725l2.142,6.731h7.037l-5.69,4.1l2.203,6.609l-5.691-4.1l-5.69,4.1l2.203-6.67
		l-5.691-4.1h6.976L138.907,372.725z M178.56,372.725l2.203,6.731h6.976l-5.63,4.1l2.142,6.609l-5.69-4.1l-5.629,4.1l2.141-6.67
		l-5.629-4.1h6.976L178.56,372.725z M218.274,372.725l2.141,6.731h7.038l-5.692,4.1l2.204,6.609l-5.69-4.1l-5.69,4.1l2.202-6.67
		l-5.691-4.1h7.037L218.274,372.725z M39.714,389.615l2.142,6.67h7.037l-5.692,4.1l2.143,6.731l-5.63-4.162l-5.69,4.1l2.141-6.669
		l-5.629-4.1h6.976L39.714,389.615z M79.367,389.615l2.202,6.67h6.977l-5.69,4.1l2.202,6.731l-5.69-4.162l-5.691,4.1l2.203-6.669
		l-5.691-4.1h7.037L79.367,389.615z M119.081,389.615l2.142,6.67h7.037l-5.691,4.1l2.142,6.731l-5.629-4.162l-5.69,4.1l2.141-6.669
		l-5.629-4.1h6.976L119.081,389.615z M158.733,389.615l2.204,6.67h6.976l-5.63,4.1l2.142,6.731l-5.691-4.162l-5.63,4.1l2.142-6.669
		l-5.691-4.1h7.099L158.733,389.615z M198.447,389.615l2.142,6.67h7.037l-5.69,4.1l2.141,6.731l-5.629-4.162l-5.69,4.1l2.141-6.669
		l-5.629-4.1h6.975L198.447,389.615z M19.826,406.503l2.203,6.671h6.976l-5.63,4.099l2.142,6.67l-5.69-4.1l-5.63,4.1l2.142-6.73
		l-5.69-4.1h7.098L19.826,406.503z M59.54,406.503l2.142,6.671h7.037l-5.691,4.1l2.203,6.669l-5.691-4.1l-5.69,4.1l2.202-6.73
		l-5.69-4.1h6.976L59.54,406.503z M99.193,406.503l2.203,6.671h6.914l-5.507,4.099l2.142,6.67l-5.69-4.1l-5.63,4.1l2.142-6.73
		l-5.69-4.1h7.037L99.193,406.503z M138.907,406.503l2.142,6.671h7.037l-5.69,4.099l2.203,6.67l-5.691-4.1l-5.69,4.1l2.203-6.73
		l-5.691-4.1h6.976L138.907,406.503z M178.56,406.503l2.203,6.671h6.976l-5.63,4.099l2.142,6.67l-5.69-4.1l-5.629,4.1l2.141-6.73
		l-5.629-4.1h6.976L178.56,406.503z M218.274,406.503l2.141,6.671h7.038l-5.692,4.099l2.204,6.67l-5.69-4.1l-5.69,4.1l2.202-6.73
		l-5.691-4.1h7.037L218.274,406.503z"/>
</g>
</svg>
